/* XPM */
static char *magick[] = {
/* columns rows colors chars-per-pixel */
"22 22 128 2",
"   c #ababbb",
".  c #9696a3",
"X  c #c2c2d3",
"o  c #7e7e89",
"O  c #7d7d89",
"+  c GhostWhite",
"@  c #dbdbef",
"#  c #61616a",
"$  c #71717b",
"%  c #dadaee",
"&  c #414147",
"*  c #d8d8ec",
"=  c Gray56",
"-  c #d9d9ed",
";  c #ddddf0",
":  c Gray94",
">  c #c1c1d3",
",  c #efeffe",
"<  c #46464c",
"1  c #a1a1ad",
"2  c #acacbc",
"3  c #47474e",
"4  c #f4f4ff",
"5  c #f6f6ff",
"6  c #606069",
"7  c #ddddf1",
"8  c #b2b2b2",
"9  c #bcbcbc",
"0  c gainsboro",
"q  c #38383d",
"w  c #9595a3",
"e  c #a5a5b0",
"r  c #717171",
"t  c #020202",
"y  c #7b7b7b",
"u  c #3e3e3e",
"i  c #b0b0ba",
"p  c #9a9aa7",
"a  c #fefeff",
"s  c Gray6",
"d  c #3f3f45",
"f  c #626262",
"g  c #7e7e8a",
"h  c Gray53",
"j  c #464646",
"k  c #7c7c7c",
"l  c Gray15",
"z  c #d5d5e9",
"x  c #dddddd",
"c  c #dcdcf0",
"v  c #828184",
"b  c #3d3d43",
"n  c Gray9",
"m  c #e9e9e9",
"M  c #59595f",
"N  c Gray4",
"B  c #353535",
"V  c #9797a5",
"C  c #5c5c60",
"Z  c Gray80",
"A  c #9897a3",
"S  c Gray93",
"D  c #0b0b0b",
"F  c #808080",
"G  c Gray95",
"H  c #f7f7ff",
"J  c #45454b",
"K  c #404046",
"L  c #c1c1c1",
"P  c #f3f3ff",
"I  c #585858",
"U  c Gray84",
"Y  c #909090",
"T  c #2a2a2a",
"R  c #4b4b50",
"E  c Gray23",
"W  c Gray96",
"Q  c #444444",
"!  c #f9f9ff",
"~  c Gray35",
"^  c #111111",
"/  c Gray34",
"(  c Gray44",
")  c #e8e8eb",
"_  c #e5e5f4",
"`  c #c2c2ca",
"'  c Gray74",
"]  c Gray52",
"[  c #9e9eab",
"{  c #f1f1fe",
"}  c #fefefe",
"|  c #f9f9f9",
" . c #414146",
".. c #f1f1ff",
"X. c #9f9fab",
"o. c #f2f2ff",
"O. c #515157",
"+. c #4a4a50",
"@. c Gray5",
"#. c Gray1",
"$. c #606068",
"%. c #dadaed",
"&. c #686868",
"*. c #706f77",
"=. c #9a9aa9",
"-. c #adadbc",
";. c #f5f5ff",
":. c #9494a1",
">. c #61616b",
",. c Gray77",
"<. c #82828e",
"1. c #62626b",
"2. c #adadbd",
"3. c #9696a4",
"4. c Gray0",
"5. c Gray100",
"6. c None",
"7. c Gray0",
"8. c Gray0",
"9. c Gray0",
"0. c Gray0",
"q. c Gray0",
"w. c Gray0",
"e. c Gray0",
"r. c Gray0",
"t. c Gray0",
"y. c Gray0",
"u. c Gray0",
/* pixels */
"6.6.@ @ 2.2.2.2.2.2.2.2.2.2.2.6.6.6.6.6.6.6.",
"6.X =.. o o 1.1.1.1.1.1.1.1.1.*.6.6.6.6.6.6.",
"6.  X X . . O O O O # # # & q  .6.6.6.6.6.6.",
"6.3.5.5.+ 7       . o >.# 3 & +.6.6.6.6.6.6.",
"6.3.5.5.5.+ + ; X   . g 1.3 & R 6.6.6.6.6.6.",
"6.3.5.5.5.5.! 7 4.4.4.4.4.4.4.4.4.4.4.4.4.6.",
"6.3.5.5.5.5.+ ; 4.5.5.5.5.5.5.5.5.5.5.5.4.6.",
"6.3.5.5.5.5.+ c 4.5.5.5.5.5.5.5.5.5.5.5.4.6.",
"6.3.5.5.5.5.H @ 4.U F j l T ~ Y x : S 5.4.6.",
"6.3.5.5.5.5.5 @ 4.N D @.4.4.u / n = ,.m 4.6.",
"6.3.5.5.5.5.5 @ 4.4.Q f 4.4.s ^ ( : ] 8 4.6.",
"6.3.5.5.5.5.;.% 4.#.I L E 4.t B 0 5.9 = 4.6.",
"6.3.5.5.5.5.4 % 4.' r k h &.y Z W | G } 4.6.",
"6.3.5.5.5.5.4 % 4.5.5.5.5.5.5.5.5.5.5.5.4.6.",
"6.3.5.5.5.5.P %.4.5.5.5.5.5.5.5.5.5.5.5.4.6.",
"6.3.5.5.5.5.o.- 4.5.5.5.5.5.5.5.5.5.5.5.4.6.",
"6.3.5.5.5.5...- 4.4.4.4.4.4.4.4.4.4.4.4.4.6.",
"6.3.5.5.5.5.{ * > 2 3.o 6 < d C 6.6.6.6.6.6.",
"6.3.5.5.5.5., * > -.3.o 6 < K O.6.6.6.6.6.6.",
"6.3.5.5.5.a , * X 2 3.O $.J b M 6.6.6.6.6.6.",
"6.e 1 i ` ) _ z X   3.<.$ $ $ v 6.6.6.6.6.6.",
"6.6.X.1 [ p V 3.3.3.3.w :.A . 6.6.6.6.6.6.6."
};
