/* XPM */
static char *magick[] = {
/* columns rows colors chars-per-pixel */
"22 22 128 2",
"   c #c2c2d3",
".  c #9696a3",
"X  c #ababbb",
"o  c #dbdbef",
"O  c GhostWhite",
"+  c #7d7d89",
"@  c #7e7e89",
"#  c #61616a",
"$  c #414147",
"%  c #dadaee",
"&  c #d8d8ec",
"*  c #71717b",
"=  c #46464c",
"-  c #47474e",
";  c #efeffe",
":  c #acacbc",
">  c #c1c1d3",
",  c #d9d9ed",
"<  c #ddddf1",
"1  c #f6f6ff",
"2  c #ddddf0",
"3  c #f4f4ff",
"4  c #a1a1ad",
"5  c #606069",
"6  c #82828e",
"7  c #9897a3",
"8  c #c2c2ca",
"9  c #9494a1",
"0  c #d5d5e9",
"q  c #61616b",
"w  c #f1f1fe",
"e  c #adadbc",
"r  c #f2f2ff",
"t  c #9f9fab",
"y  c #9595a3",
"u  c #606068",
"i  c #b0b0ba",
"p  c #706f77",
"a  c #45454b",
"s  c #e5e5f4",
"d  c #fefeff",
"f  c #9a9aa7",
"g  c #9797a5",
"h  c #f5f5ff",
"j  c #5c5c60",
"k  c #3f3f45",
"l  c #3d3d43",
"z  c #515157",
"x  c #828184",
"c  c #38383d",
"v  c #404046",
"b  c #9a9aa9",
"n  c #dadaed",
"m  c #7e7e8a",
"M  c #414146",
"N  c #4b4b50",
"B  c #4a4a50",
"V  c #f1f1ff",
"C  c #dcdcf0",
"Z  c #9e9eab",
"A  c #f3f3ff",
"S  c #f9f9ff",
"D  c #a5a5b0",
"F  c #59595f",
"G  c #e8e8eb",
"H  c #f7f7ff",
"J  c #62626b",
"K  c #adadbd",
"L  c #9696a4",
"P  c #00007b",
"I  c Gray0",
"U  c Gray100",
"Y  c None",
"T  c Gray0",
"R  c Gray0",
"E  c Gray0",
"W  c Gray0",
"Q  c Gray0",
"!  c Gray0",
"~  c Gray0",
"^  c Gray0",
"/  c Gray0",
"(  c Gray0",
")  c Gray0",
"_  c Gray0",
"`  c Gray0",
"'  c Gray0",
"]  c Gray0",
"[  c Gray0",
"{  c Gray0",
"}  c Gray0",
"|  c Gray0",
" . c Gray0",
".. c Gray0",
"X. c Gray0",
"o. c Gray0",
"O. c Gray0",
"+. c Gray0",
"@. c Gray0",
"#. c Gray0",
"$. c Gray0",
"%. c Gray0",
"&. c Gray0",
"*. c Gray0",
"=. c Gray0",
"-. c Gray0",
";. c Gray0",
":. c Gray0",
">. c Gray0",
",. c Gray0",
"<. c Gray0",
"1. c Gray0",
"2. c Gray0",
"3. c Gray0",
"4. c Gray0",
"5. c Gray0",
"6. c Gray0",
"7. c Gray0",
"8. c Gray0",
"9. c Gray0",
"0. c Gray0",
"q. c Gray0",
"w. c Gray0",
"e. c Gray0",
"r. c Gray0",
"t. c Gray0",
"y. c Gray0",
"u. c Gray0",
/* pixels */
"Y Y o o K K K K K K K K K K K Y Y Y Y Y Y Y ",
"Y   b . @ @ J J J J J J J J J p Y Y Y Y Y Y ",
"Y X     . . + + + + # # # $ c M Y Y Y Y Y Y ",
"Y L U U O < X X X . @ q # - $ B Y Y Y Y Y Y ",
"Y L U U U O O 2   X . m J - $ N Y Y Y Y Y Y ",
"Y L U U U U S < I I I I I I I I I I I I I Y ",
"Y L U U U U O 2 I U U U U U U U U U U U I Y ",
"Y L U U U U O C I U U U U P U P U U U U I Y ",
"Y L U U U U H o I U U U P P U P P U U U I Y ",
"Y L U U U U 1 o I U U P P P U P P P U U I Y ",
"Y L U U U U 1 o I U P P P P U P P P P U I Y ",
"Y L U U U U h % I U P P P P U P P P P U I Y ",
"Y L U U U U 3 % I U U P P P U P P P U U I Y ",
"Y L U U U U 3 % I U U U P P U P P U U U I Y ",
"Y L U U U U A n I U U U U P U P U U U U I Y ",
"Y L U U U U r , I U U U U U U U U U U U I Y ",
"Y L U U U U V , I I I I I I I I I I I I I Y ",
"Y L U U U U w & > : L @ 5 = k j Y Y Y Y Y Y ",
"Y L U U U U ; & > e L @ 5 = v z Y Y Y Y Y Y ",
"Y L U U U d ; &   : L + u a l F Y Y Y Y Y Y ",
"Y D 4 i 8 G s 0   X L 6 * * * x Y Y Y Y Y Y ",
"Y Y t 4 Z f g L L L L y 9 7 . Y Y Y Y Y Y Y "
};
